<?xml version="1.0" standalone="no"?>
<!DOCTYPE svg PUBLIC "-//W3C//DTD SVG 20010904//EN"
 "http://www.w3.org/TR/2001/REC-SVG-20010904/DTD/svg10.dtd">
<svg version="1.0" xmlns="http://www.w3.org/2000/svg"
 width="1024.000000pt" height="1024.000000pt" viewBox="0 0 1024.000000 1024.000000"
 preserveAspectRatio="xMidYMid meet">

<g transform="translate(0.000000,1024.000000) scale(0.100000,-0.100000)"
fill="#000000" stroke="none">
<path d="M5345 9324 c-216 -32 -349 -96 -472 -228 l-68 -73 -120 -12 c-149
-15 -372 -59 -532 -106 -473 -137 -880 -379 -1228 -729 -149 -150 -234 -252
-344 -416 -250 -373 -402 -759 -473 -1204 -20 -123 -23 -178 -23 -436 0 -317
10 -416 61 -650 248 -1115 1104 -1997 2219 -2286 229 -59 397 -81 675 -88 855
-21 1735 389 2314 1079 162 193 277 368 391 594 402 803 419 1798 44 2581
-110 228 -227 387 -352 476 -24 17 -29 30 -38 94 -27 197 -87 320 -257 521
-342 406 -911 754 -1397 855 -115 24 -328 39 -400 28z m-659 -620 l-1 -86 -51
-36 c-176 -128 -310 -295 -432 -538 -48 -96 -181 -422 -217 -531 l-17 -53 -86
-1 c-48 -1 -100 -3 -117 -4 -16 -2 -67 -6 -111 -9 -178 -13 -407 -72 -559
-145 -221 -106 -360 -255 -442 -472 -139 -370 -46 -846 301 -1536 52 -104 130
-251 175 -327 l80 -140 -84 -88 c-46 -48 -123 -138 -171 -198 -48 -61 -91
-110 -94 -110 -9 0 -127 168 -182 261 -181 300 -309 662 -357 1014 -73 525 -1
1048 209 1516 359 803 1064 1361 1935 1533 246 48 222 53 221 -50z m114 -314
c38 -59 134 -150 209 -198 82 -52 200 -105 351 -157 276 -94 468 -129 823
-150 323 -19 413 -36 542 -104 68 -35 165 -116 165 -138 0 -6 -22 -28 -49 -48
-28 -19 -82 -70 -121 -112 -86 -92 -160 -235 -184 -355 -21 -100 -20 -264 0
-392 20 -122 14 -249 -15 -353 -12 -40 -21 -92 -21 -114 0 -81 83 -148 183
-149 61 0 89 17 152 94 72 87 157 129 263 130 87 0 137 -20 195 -78 51 -50 69
-98 68 -174 -3 -238 -212 -514 -447 -592 -113 -38 -214 -25 -310 40 -25 16
-49 30 -54 30 -5 0 -32 -48 -60 -107 -201 -425 -557 -699 -1035 -795 -146 -30
-429 -32 -580 -4 -274 50 -498 147 -702 305 -214 165 -381 409 -444 649 -18
67 -40 312 -28 312 2 0 33 -10 69 -22 51 -16 92 -21 186 -22 l122 -2 47 -43
c25 -23 71 -54 102 -68 74 -34 165 -29 242 12 l51 28 68 -65 c139 -134 285
-167 500 -112 l103 26 67 -30 c108 -49 142 -57 237 -56 66 1 107 7 155 23 77
27 184 96 221 143 68 87 105 204 76 242 -12 17 -28 20 -103 21 -123 1 -172 25
-284 139 -90 92 -193 156 -251 156 -27 0 -29 3 -29 38 0 49 -32 100 -75 118
-41 17 -65 10 -65 -20 0 -45 -88 -98 -199 -122 -36 -7 -114 -14 -172 -14 -181
0 -321 49 -401 140 -38 43 -40 47 -33 94 14 106 75 173 208 228 170 69 281
186 318 332 15 59 1 96 -34 96 -17 0 -42 -21 -90 -79 -89 -106 -131 -138 -276
-211 -95 -48 -138 -77 -181 -120 -58 -58 -103 -136 -115 -201 -11 -57 -13 -58
-83 -41 -57 14 -70 14 -149 -2 -47 -9 -87 -15 -88 -14 -1 2 70 223 159 491
178 537 162 504 271 558 50 24 72 29 135 29 85 0 167 -18 251 -56 56 -25 58
-26 94 -8 43 20 70 72 60 112 -11 45 -74 97 -150 123 -59 20 -88 24 -190 23
-86 0 -132 -5 -162 -17 -24 -9 -43 -13 -43 -9 0 4 28 64 63 133 110 219 218
363 366 486 36 29 66 53 67 53 1 0 16 -22 34 -50z m-973 -1357 c-61 -188 -105
-330 -151 -495 l-17 -58 -41 0 c-29 0 -54 8 -79 26 -48 33 -69 28 -94 -21 -44
-89 -29 -229 38 -359 l31 -61 1 -195 c1 -177 3 -204 27 -292 53 -194 149 -375
290 -543 l84 -100 -15 -40 c-23 -64 -26 -228 -6 -305 42 -161 153 -292 315
-373 265 -131 605 -138 960 -21 194 64 419 186 602 325 43 32 108 75 145 95
100 53 250 155 316 215 l59 52 56 -18 c76 -24 250 -98 320 -137 182 -100 298
-222 412 -432 l43 -78 -94 -92 c-377 -367 -816 -615 -1303 -737 -525 -132
-1137 -92 -1642 106 -256 101 -543 268 -764 446 -141 113 -333 306 -325 327
27 72 294 394 467 563 129 127 139 139 136 169 -2 22 -12 40 -29 53 -32 23
-64 16 -154 -38 -32 -20 -59 -34 -61 -33 -13 14 -184 338 -246 467 -152 313
-240 565 -279 793 -28 161 -23 396 9 498 75 233 270 383 592 456 139 31 222
41 355 43 l110 1 -68 -207z m3933 -253 c56 -227 80 -428 80 -684 0 -585 -157
-1089 -493 -1584 -38 -57 -73 -102 -77 -100 -4 2 -36 46 -71 98 -116 174 -293
331 -474 422 -60 30 -198 90 -258 111 -17 6 -15 11 16 49 19 24 58 82 86 129
l53 87 36 -9 c20 -5 78 -9 128 -9 282 -1 577 221 705 528 85 205 77 401 -22
525 l-30 37 29 43 c90 131 180 375 207 562 l8 50 24 -70 c13 -38 37 -122 53
-185z m-3557 -2065 c275 -178 636 -275 984 -263 68 2 120 1 115 -3 -17 -16
-197 -80 -288 -103 -212 -53 -381 -57 -554 -15 -171 42 -299 128 -355 239 -28
56 -51 175 -41 215 l7 28 22 -21 c12 -11 62 -45 110 -77z"/>
<path d="M5464 7569 c-64 -18 -88 -86 -50 -143 22 -34 53 -46 124 -46 145 -1
304 -63 389 -153 28 -29 66 -79 83 -111 36 -63 47 -71 85 -62 39 10 50 48 36
130 -23 139 -102 238 -252 316 -128 66 -316 98 -415 69z"/>
<path d="M4215 7180 c-13 -15 -16 -30 -13 -65 11 -90 90 -153 204 -163 101 -8
214 41 214 93 0 34 -17 42 -110 47 -99 6 -142 22 -198 72 -45 41 -71 45 -97
16z"/>
<path d="M5356 6944 c-29 -28 -31 -64 -6 -112 52 -98 181 -160 305 -149 106
10 185 57 185 110 0 42 -21 50 -117 42 -118 -9 -199 15 -271 80 -54 48 -72 54
-96 29z"/>
<path d="M7032 6175 c-54 -24 -100 -65 -142 -127 -43 -64 -80 -169 -80 -225 0
-64 75 -108 113 -65 9 9 38 65 65 123 54 116 77 140 126 132 42 -6 84 11 97
41 24 51 -52 137 -121 136 -14 -1 -40 -7 -58 -15z"/>
<path d="M4136 5634 c-22 -22 -20 -42 10 -102 48 -97 172 -178 340 -223 112
-31 331 -33 424 -4 83 25 150 85 150 134 0 43 -16 47 -113 27 -238 -47 -523
12 -712 148 -55 40 -76 44 -99 20z"/>
<path d="M7060 2666 c-181 -39 -285 -174 -321 -417 -15 -107 -6 -412 15 -497
37 -146 106 -241 214 -294 64 -32 71 -33 187 -33 103 0 129 4 179 24 110 44
176 126 208 260 21 89 23 132 6 149 -17 17 -222 16 -235 0 -6 -7 -16 -38 -23
-68 -19 -80 -53 -110 -124 -110 -77 0 -101 14 -127 74 -21 46 -23 71 -27 237
-7 327 30 439 148 439 80 0 120 -43 140 -151 6 -29 16 -57 23 -61 20 -13 211
-10 225 4 27 27 4 185 -39 270 -74 145 -257 216 -449 174z"/>
<path d="M1354 2643 c-16 -16 -17 -58 -12 -596 5 -514 8 -581 22 -595 23 -23
561 -25 576 -2 5 8 10 61 10 117 0 137 0 137 -182 131 -73 -3 -139 -3 -145 -1
-10 4 -13 105 -13 464 0 548 14 499 -139 499 -81 0 -103 -3 -117 -17z"/>
<path d="M2304 2650 c-12 -5 -24 -19 -27 -32 -3 -13 -42 -185 -86 -383 -44
-198 -101 -449 -126 -559 -25 -109 -45 -202 -45 -207 0 -4 7 -15 16 -23 12
-12 38 -16 112 -16 102 0 142 13 142 47 0 9 5 45 11 80 l11 63 139 0 138 0 10
-37 c5 -21 12 -55 16 -76 11 -69 31 -79 150 -75 62 2 109 8 116 15 9 9 5 39
-16 130 -35 155 -235 1045 -235 1049 0 1 -7 10 -16 18 -13 13 -41 16 -152 15
-75 0 -147 -4 -158 -9z m222 -732 l7 -38 -82 0 -82 0 7 38 c3 20 22 113 40
206 19 93 34 172 35 175 1 6 64 -313 75 -381z"/>
<path d="M2982 2648 c-8 -8 -12 -48 -12 -115 0 -91 2 -103 19 -113 11 -5 84
-10 165 -10 80 0 146 -4 146 -9 0 -4 -13 -37 -29 -72 -15 -35 -68 -154 -116
-264 -48 -110 -110 -249 -137 -310 -44 -97 -51 -120 -55 -196 -8 -128 -32
-119 336 -119 225 0 310 3 319 12 15 15 16 196 2 218 -7 12 -44 16 -189 20
l-179 5 104 230 c257 565 247 540 245 629 0 43 -6 85 -12 93 -16 18 -589 19
-607 1z"/>
<path d="M3702 2650 c-18 -4 -35 -10 -38 -13 -5 -4 56 -163 252 -667 l33 -85
1 -206 c0 -159 3 -209 14 -224 12 -17 27 -19 113 -20 70 0 105 4 116 14 15 12
17 41 17 235 l0 221 121 310 c168 429 164 417 142 432 -11 9 -54 13 -123 13
-90 0 -109 -3 -122 -17 -8 -10 -42 -112 -77 -228 -34 -115 -65 -213 -70 -217
-5 -6 -59 166 -127 414 -12 41 -32 48 -127 47 -51 -1 -107 -5 -125 -9z"/>
<path d="M4880 2653 c-8 -3 -18 -11 -22 -17 -4 -6 -8 -211 -8 -456 0 -487 3
-520 58 -610 36 -59 120 -115 202 -136 70 -18 216 -15 280 5 59 18 133 74 168
125 66 99 67 110 65 616 -3 415 -4 456 -20 468 -26 19 -193 16 -221 -4 l-22
-15 0 -430 c0 -449 -2 -473 -44 -508 -27 -22 -131 -19 -157 5 -48 42 -49 57
-49 504 0 500 11 460 -127 459 -49 0 -95 -3 -103 -6z"/>
<path d="M5796 2644 c-15 -14 -16 -78 -16 -583 0 -311 3 -576 6 -588 9 -32 63
-47 152 -40 41 3 79 10 85 16 6 6 9 128 8 340 -2 229 1 331 8 331 6 0 11 -4
11 -9 0 -19 313 -657 328 -669 23 -18 182 -13 205 7 15 12 17 67 17 602 0 686
16 613 -136 607 -71 -2 -97 -7 -104 -18 -6 -9 -10 -151 -11 -330 l-1 -315 -49
100 c-26 55 -92 195 -145 310 -53 116 -107 220 -121 233 -22 20 -34 22 -123
22 -77 0 -102 -4 -114 -16z"/>
<path d="M7730 2653 c-40 -14 -40 -16 -40 -612 0 -323 4 -582 9 -590 13 -20
554 -22 574 -2 17 17 17 215 -1 233 -9 9 -59 15 -165 18 l-152 5 -3 465 c-2
423 -4 466 -19 478 -17 12 -172 16 -203 5z"/>
<path d="M8399 2639 c-20 -20 -20 -24 -13 -602 3 -320 9 -585 13 -589 12 -13
571 -10 587 3 19 15 20 224 2 236 -7 4 -85 10 -173 13 l-160 5 -3 108 -3 107
129 0 c170 0 168 -2 165 131 -1 58 -7 107 -13 113 -6 6 -67 13 -143 16 l-132
5 -3 108 -3 107 148 0 c196 0 193 -2 193 130 0 138 19 130 -307 130 -252 0
-264 -1 -284 -21z"/>
</g>
</svg>
